# xmcd CD database file
#
# Track frame offsets:
#	150
#	17965
#	29872
#	48345
#	70160
#	89520
#	104082
#	125015
#	147715
#	167312
#	182475
#
# Disc length: 2644 seconds
#
# Revision: 1
# Processed by: cddbd v1.5.1PL0 Copyright (c) Steve Scherf et al.
# Submitted via: CDex 1.51
#
DISCID=a30a520b
DTITLE=あずまんが大王 - あずまんが大王　ヴォーカルコレクション　うたいまし
DYEAR=1900
DGENRE=Anime
TTITLE0=空耳ケーキ（Ｏｒａｎｇｅｓ＆Ｌｅｍｏｎｓ）
TTITLE1=つくりましょう！（美浜ちよ＆金田朋子　ゲスト〜春日歩＆滝野智＆水原暦〜松岡由貴＆樋口智恵子＆田中理恵）
TTITLE2=心は少女でパラシュート（榊さん〜浅川悠）
TTITLE3=しっかり！ＴＲＹ　Ｌａ　Ｌａｉ（春日歩〜松岡由貴）
TTITLE4=ぽいぽいＰＥＡＣＥ（滝野智〜樋口智恵子）
TTITLE5=明日は負けないＧＯ！ＦＲＩＥＮＤ！（神楽〜桑島法子）
TTITLE6=ほろりんコンフェティ（美浜ちよ＆春日歩〜金田朋子＆松岡由貴）
TTITLE7=それぞれのＯｎｅ　ｗａｙ（水原暦〜田中理恵）
TTITLE8=おとなを休んで出かけよう（谷崎ゆかり＆黒沢みなも〜平松晶子＆久川綾）
TTITLE9=風のＭｏｎ−Ａｍｉ（かおりん〜野川さくら）
TTITLE10=Ｒａｓｐｂｅｒｒｙ　ｈｅａｖｅｎ（Ｏｒａｎｇｅｓ＆Ｌｅｍｏｎｓ）
EXTD=
EXTT0=
EXTT1=
EXTT2=
EXTT3=
EXTT4=
EXTT5=
EXTT6=
EXTT7=
EXTT8=
EXTT9=
EXTT10=
PLAYORDER=
